<svg xmlns="http://www.w3.org/2000/svg" width="64" height="64" viewBox="0 0 16.933 16.933" id="delivery-tracking"><path d="m 13.758337,0.52923163 c -0.35352,-6.6e-4 -0.35352,0.52983007 0,0.52918007 h 0.26458 v 0.54779 c -1.057575,0.1332473 -1.851071,1.0321598 -1.85208,2.0981299 -3e-6,1.1690441 0.947664,2.1167424 2.11667,2.1167402 1.169002,-3.4e-6 2.116663,-0.9477 2.11666,-2.1167402 -0.0013,-1.065772 -0.794701,-1.9643876 -1.85208,-2.0976099 v -0.54831 h 0.26458 c 0.35352,6.508e-4 0.35352,-0.52984007 0,-0.52918007 z M 9.524486,2.3813717 c -0.3535199,-6.509e-4 -0.3535199,0.52983 0,0.52918 h 1.852081 c 0.35352,6.694e-4 0.35352,-0.52983 0,-0.52918 z m 4.563501,0.52543 c -0.40774,0.10927 -0.65986,0.51176 -0.58756,0.9219399 0.0733,0.4157202 0.45174,0.7024301 0.86713,0.66613 0.42052,-0.0368 0.74001,-0.3897198 0.74001,-0.8066899 0.008,-0.34978 0.51828,-0.3549499 0.52968,0 0,0.69592 -0.53353,1.2735099 -1.22266,1.33381 -0.68913,0.0603 -1.31236,-0.41482 -1.43558,-1.1012601 -0.12223,-0.6808999 0.30435,-1.3464899 0.97255,-1.5255399 0.0229,-0.007 0.0465,-0.01 0.07032,-0.00991 0.305975,0.00909 0.366075,0.43062 0.06611,0.52152 z m 1.07595,0.13695 -0.66559,0.8222001 c -0.22196,0.2751598 -0.63433,-0.059 -0.41135,-0.33332 l 0.6656,-0.8216801 c 0.0555,-0.0688 0.12274,-0.0997 0.18913,-0.102845 0.19917,-0.00901 0.38944,0.229895 0.22221,0.435645 z m -5.110281,0.39586 c -0.35351,-6.614e-4 -0.35351,0.52983 0,0.5291799 h 1.322911 c 0.35352,6.615e-4 0.35352,-0.52983 0,-0.5291799 z m 0.793751,1.0583699 c -0.35351,-6.615e-4 -0.35351,0.52984 0,0.5291801 h 0.52916 c 0.35352,6.615e-4 0.35352,-0.52983 0,-0.5291801 z M 3.7166261,8.7334818 V 5.5563416 l -2.12861,0 c -0.4351601,0 -0.79530002,0.3580601 -0.79530002,0.79326 v 7.4085804 c -0.14609,5.69e-4 -0.26355,0.118339 -0.26355,0.264589 v 0.529701 c 0,0.14659 0.11801,0.264739 0.26459,0.264589 l 0.79220002,-5.29e-4 c 0,-1.16378 0.95703,-2.11828 2.11925,-2.11828 1.1622101,0 2.1171799,0.95522 2.1171799,2.11828 h 5.554701 c 0,-1.16378 0.95703,-2.11828 2.11925,-2.11828 1.16222,0 2.11718,0.95522 2.11718,2.11828 l 0.52607,5.29e-4 c 0.14658,0 0.26458,-0.117999 0.26458,-0.264589 v -0.529701 c 0,-0.1466 -0.118,-0.264589 -0.26458,-0.264589 h -0.26458 v -1.587041 h -0.52917 c -0.35287,0 -0.34963,-0.481499 0,-0.52918 h 0.52917 v -0.529189 c 0,-0.0941 -0.0372,-0.135771 -0.0677,-0.18655 -0.46262,-0.77056 -2.28358,-3.8035103 -2.28358,-3.8035103 -0.13394,-0.27412 -0.29507,-0.2439199 -0.55862,-0.2439199 h -2.38177 V 13.758182 H 10.054166 V 6.3496016 c 0,-0.4351999 -0.3575501,-0.79326 -0.79271,-0.79326 H 7.4104062 v 3.1761402 c 6.35e-4,0.36604 -0.3869402,0.62899 -0.7265702,0.49249 l -1.1270699,-0.45115 -1.1125651,0.44802 c -0.339165,0.13691 -0.7253649,-0.1229 -0.7275749,-0.48836 z M 6.881176,5.5563416 H 4.246256 V 8.7304118 L 5.4570361,8.2425717 c 0.0633,-0.025501 0.13407,-0.025501 0.1973998,0 L 6.880171,8.7324818 Z m 4.982701,2.1177699 h 1.02475 c 0.17891,8.731e-4 0.33386,0.0921 0.42168,0.2418601 l 1.48828,2.4583204 c 0.19491,0.333569 -0.0488,0.738369 -0.42375,0.73745 h -2.50786 c -0.26747,0.001 -0.48879,-0.214691 -0.48989,-0.48836 V 8.1624718 c 0,-0.2683201 0.21841,-0.4883603 0.48679,-0.4883603 z m 0.0424,0.5271201 v 2.3808094 h 2.40037 L 12.865397,8.2012316 Z M 6.614616,11.376852 c 0.1324901,0 0.2649101,0.0883 0.2645801,0.265109 v 1.05785 c 6.615e-4,0.353521 -0.5298101,0.353521 -0.52916,0 v -1.05785 c -3.175e-4,-0.176769 0.13209,-0.265109 0.2645799,-0.265109 z m 1.0583301,0 c 0.1324899,0 0.2649098,0.0883 0.26459,0.265109 v 1.05785 c 6.614e-4,0.353521 -0.5298199,0.353521 -0.5291701,0 v -1.05785 c -3.175e-4,-0.176769 0.1321001,-0.265109 0.2645801,-0.265109 z m 1.0583399,0 c 0.1324801,0 0.2649101,0.0883 0.2645799,0.265109 v 1.05785 c 6.615e-4,0.353521 -0.5298199,0.353521 -0.5291698,0 v -1.05785 C 8.4663786,11.465192 8.5987959,11.376852 8.731286,11.376852 Z m 2.646351,0.265109 h 0.26458 c 0.35352,-6.61e-4 0.35352,0.52983 0,0.52918 h -0.26458 c -0.35352,6.62e-4 -0.35352,-0.52983 0,-0.52918 z m -7.672401,1.58652 c -0.8744299,0 -1.5895699,0.713021 -1.5895699,1.58755 0,0.874531 0.71514,1.588071 1.5895699,1.588071 0.8744201,0 1.5875,-0.71354 1.5875,-1.588071 0,-0.874529 -0.7130799,-1.58755 -1.5875,-1.58755 z m 9.790611,0 c -0.87442,0 -1.58956,0.713021 -1.58956,1.58755 0,0.874531 0.71514,1.588071 1.58956,1.588071 0.87444,0 1.5875,-0.71354 1.5875,-1.588071 0,-0.874529 -0.71306,-1.58755 -1.5875,-1.58755 z m -9.790611,0.79429 c 0.4354801,0 0.7927102,0.35725 0.7927102,0.792741 0,0.435509 -0.3572301,0.79533 -0.7927102,0.79533 -0.4354899,0 -0.7952999,-0.35946 -0.7952999,-0.79533 0,-0.43585 0.35981,-0.792741 0.7952999,-0.792741 z m 9.791131,0 c 0.43548,0 0.79272,0.35725 0.79272,0.792741 0,0.435509 -0.35724,0.79533 -0.79272,0.79533 -0.43549,0 -0.7953,-0.35946 -0.7953,-0.79533 0,-0.43585 0.35982,-0.792741 0.7953,-0.792741 z m -9.791131,0.529181 c -0.14766,0 -0.26562,0.11614 -0.26562,0.26356 0,0.14743 0.11796,0.266139 0.26562,0.266139 0.1476499,0 0.2635501,-0.11835 0.2635501,-0.266139 0,-0.147781 -0.1159002,-0.26356 -0.2635501,-0.26356 z m 9.791131,0 c -0.14766,0 -0.26562,0.11614 -0.26562,0.26356 0,0.14743 0.11796,0.266139 0.26562,0.266139 0.14766,0 0.26355,-0.11835 0.26355,-0.266139 0,-0.147781 -0.11589,-0.26356 -0.26355,-0.26356 z"></path></svg>