<?xml version="1.0" encoding="utf-8"?>
<!-- Uploaded to: SVG Repo, www.svgrepo.com, Generator: SVG Repo Mixer Tools -->
<svg fill="#000000" height="800px" width="800px" version="1.2" baseProfile="tiny" id="Layer_1" xmlns="http://www.w3.org/2000/svg" xmlns:xlink="http://www.w3.org/1999/xlink"
	  viewBox="-63 65 128 128" xml:space="preserve">
<path d="M-52.8,96.7l-8-27.7l4.6-1.3l8.4,29.1h42.1l-10.2,80.4h-34.4l-10.3-80.4L-52.8,96.7z M60.9,143.7c0,0,1.2-11.7-16.6-11.7
	H15.8c-17.9,0-16.6,11.7-16.6,11.7H60.9z M-0.8,165.5c0,0-1.3,11.7,16.6,11.7h28.4c17.8,0,16.6-11.7,16.6-11.7H-0.8z M58.5,159.8
	c2.9,0,5.3-2.4,5.3-5.3c0-3-2.4-5.3-5.3-5.3H1.9c-3,0-5.3,2.4-5.3,5.3c0,3,2.4,5.3,5.3,5.3H58.5z M65,183.3H-63v9.7H65V183.3z"/>
</svg>